<svg width="435" height="611" viewBox="0 0 435 611" fill="none" xmlns="http://www.w3.org/2000/svg">
<path d="M144.13 127.676L145.163 102.564C145.163 102.564 175.378 107.12 182.116 104.191C182.116 104.191 192.937 63.7255 185.055 40.3439L184.925 39.4458L121.33 27.432L115.15 64.0577C113.437 57.521 96.1187 49.0305 90.8179 57.8474C79.3302 76.9523 114.501 92.825 114.501 92.825L108.527 125.481" fill="white"/>
<path opacity="0.398926" fill-rule="evenodd" clip-rule="evenodd" d="M145.163 102.564L124.982 96.7236L144.406 111.959L145.163 102.564Z" fill="black"/>
<path fill-rule="evenodd" clip-rule="evenodd" d="M164.115 67.0206L169.979 84.8656L161.486 84.379L164.115 67.0206Z" fill="#1502FF"/>
<path fill-rule="evenodd" clip-rule="evenodd" d="M124.526 66.3912C125.13 68.4442 129.351 75.8904 138.175 80.5867C147.382 85.4877 158.158 85.8393 168.8 86.1866C174.282 86.3654 179.728 86.5431 184.906 87.3406C186.236 98.2468 183.23 122.084 174.354 121.637C162.78 121.848 157.054 120.661 149.02 118.996C145.938 118.357 142.516 117.647 138.294 116.919C116.558 113.172 119.432 95.3407 120.432 89.3916C120.448 89.2945 120.465 89.1975 120.481 89.1006C121.413 83.5654 122.292 78.3393 119.214 70.1778C113.852 59.712 105.487 56.0147 101.665 54.8242C100.41 50.1522 99.5809 44.7776 99.132 39.0919C97.926 23.8745 109.814 10.9014 118.915 7.57503C128.127 4.2089 143.916 -0.243798 165.934 8.84743C173.727 12.0675 180.338 10.4267 186.1 8.99671C191.282 7.71081 195.777 6.59527 199.828 9.3375C214.448 19.2369 197.562 56.9042 159.607 44.3728C132.458 35.4087 131.624 37.1212 131.029 42.2115C129.697 53.6024 127.729 61.6754 124.526 66.3912Z" fill="#1502FF"/>
<path d="M124.526 66.3912L123.698 65.8291L123.433 66.2202L123.566 66.6737L124.526 66.3912ZM138.175 80.5867L137.704 81.4698L138.175 80.5867ZM168.8 86.1866L168.833 85.1867L168.8 86.1866ZM184.906 87.3406L185.899 87.2195L185.807 86.4673L185.058 86.3519L184.906 87.3406ZM174.354 121.637L174.404 120.638L174.37 120.636L174.335 120.637L174.354 121.637ZM149.02 118.996L148.817 119.975L149.02 118.996ZM138.294 116.919L138.464 115.934L138.294 116.919ZM120.432 89.3916L121.419 89.5574L120.432 89.3916ZM120.481 89.1006L121.468 89.2667L121.468 89.2667L120.481 89.1006ZM119.214 70.1778L120.15 69.8248L120.13 69.7719L120.105 69.7216L119.214 70.1778ZM101.665 54.8242L100.699 55.0837L100.842 55.6155L101.368 55.7793L101.665 54.8242ZM99.132 39.0919L100.129 39.0131L100.129 39.0128L99.132 39.0919ZM118.915 7.57503L118.572 6.63544L118.571 6.63547L118.915 7.57503ZM165.934 8.84743L166.316 7.92288L166.315 7.9228L165.934 8.84743ZM186.1 8.99671L185.859 8.02581L185.859 8.02581L186.1 8.99671ZM199.828 9.3375L200.389 8.50916L200.388 8.5091L199.828 9.3375ZM159.607 44.3728L159.293 45.3227L159.293 45.3227L159.607 44.3728ZM131.029 42.2115L132.022 42.3277L132.022 42.3276L131.029 42.2115ZM123.566 66.6737C123.921 67.8769 125.215 70.3711 127.497 73.1346C129.799 75.9226 133.158 79.0499 137.704 81.4698L138.645 79.7037C134.368 77.4272 131.205 74.4832 129.039 71.8608C126.854 69.2138 125.736 66.9585 125.486 66.1087L123.566 66.6737ZM137.704 81.4698C147.153 86.4991 158.175 86.8407 168.768 87.1864L168.833 85.1867C158.141 84.8378 147.611 84.4763 138.645 79.7037L137.704 81.4698ZM168.768 87.1864C174.261 87.3656 179.645 87.5426 184.754 88.3293L185.058 86.3519C179.81 85.5437 174.302 85.3652 168.833 85.1867L168.768 87.1864ZM183.913 87.4617C184.562 92.7879 184.154 101.356 182.483 108.519C181.647 112.104 180.513 115.255 179.093 117.459C177.666 119.674 176.098 120.723 174.404 120.638L174.303 122.636C177.047 122.774 179.184 121.011 180.775 118.542C182.374 116.061 183.573 112.655 184.432 108.974C186.15 101.604 186.579 92.7996 185.899 87.2195L183.913 87.4617ZM174.335 120.637C162.87 120.846 157.228 119.676 149.223 118.016L148.817 119.975C156.88 121.647 162.689 122.851 174.372 122.637L174.335 120.637ZM149.223 118.016C146.141 117.377 142.704 116.665 138.464 115.934L138.124 117.905C142.328 118.63 145.735 119.336 148.817 119.975L149.223 118.016ZM138.464 115.934C133.166 115.02 129.442 113.262 126.83 111.103C124.223 108.947 122.673 106.348 121.787 103.667C120 98.2587 120.917 92.5412 121.419 89.5574L119.446 89.2258C118.947 92.1911 117.928 98.3638 119.887 104.295C120.875 107.284 122.62 110.218 125.555 112.645C128.487 115.069 132.555 116.945 138.124 117.905L138.464 115.934ZM121.419 89.5574C121.435 89.4605 121.451 89.3636 121.468 89.2667L119.495 88.9346C119.478 89.0315 119.462 89.1286 119.446 89.2258L121.419 89.5574ZM121.468 89.2667C122.407 83.6836 123.324 78.2406 120.15 69.8248L118.278 70.5308C121.26 78.438 120.418 83.4472 119.495 88.9346L121.468 89.2667ZM120.105 69.7216C114.58 58.9387 105.943 55.1091 101.963 53.8692L101.368 55.7793C105.031 56.9204 113.124 60.4852 118.324 70.6339L120.105 69.7216ZM102.631 54.5648C101.396 49.9671 100.575 44.6557 100.129 39.0131L98.1347 39.1706C98.587 44.8994 99.4243 50.3373 100.699 55.0837L102.631 54.5648ZM100.129 39.0128C99.5489 31.6906 102.117 24.8717 105.973 19.4545C109.839 14.0235 114.934 10.0952 119.258 8.51459L118.571 6.63547C113.795 8.3813 108.395 12.6027 104.343 18.2942C100.282 23.9994 97.5091 31.2757 98.1348 39.1709L100.129 39.0128ZM119.258 8.51463C128.34 5.19623 143.852 0.81166 165.552 9.77206L166.315 7.9228C143.981 -1.29926 127.914 3.22157 118.572 6.63544L119.258 8.51463ZM165.552 9.77198C173.677 13.1293 180.583 11.3966 186.341 9.96761L185.859 8.02581C180.093 9.45688 173.777 11.0057 166.316 7.92288L165.552 9.77198ZM186.341 9.96761C191.63 8.65509 195.648 7.71642 199.267 10.1659L200.388 8.5091C195.905 5.47412 190.934 6.76653 185.859 8.02581L186.341 9.96761ZM199.267 10.1658C202.57 12.4021 204.163 16.2439 204.049 20.7249C203.935 25.2113 202.1 30.2527 198.647 34.6488C191.782 43.3886 178.519 49.5632 159.921 43.4229L159.293 45.3227C178.651 51.7137 192.808 45.3204 200.22 35.8846C203.905 31.1929 205.923 25.7445 206.049 20.7757C206.175 15.8015 204.396 11.2226 200.389 8.50916L199.267 10.1658ZM159.921 43.4229C153.127 41.1797 147.961 39.5982 144.025 38.5697C140.105 37.5455 137.34 37.0515 135.375 37.0215C133.408 36.9915 132.014 37.4261 131.144 38.5182C130.35 39.5161 130.177 40.8824 130.035 42.0953L132.022 42.3276C132.178 40.9954 132.332 40.2388 132.71 39.7642C133.013 39.3836 133.635 38.9959 135.345 39.022C137.056 39.0481 139.628 39.4886 143.519 40.5054C147.394 41.5179 152.513 43.0839 159.293 45.3227L159.921 43.4229ZM130.035 42.0953C128.703 53.4898 126.75 61.3364 123.698 65.8291L125.353 66.9533C128.708 62.0143 130.691 53.7149 132.022 42.3277L130.035 42.0953Z" fill="white"/>
<path d="M150.726 87.2001C150.726 87.2001 153.102 92.3523 158.999 92.6476" stroke="white" stroke-width="4"/>
<path fill-rule="evenodd" clip-rule="evenodd" d="M161.998 67.7518C161.617 73.1831 156.914 77.2773 151.495 76.8973C146.076 76.5173 141.991 71.8068 142.372 66.3755C142.752 60.9443 147.455 56.8493 152.874 57.2293C158.294 57.6093 162.379 62.3206 161.998 67.7518Z" stroke="#E576C6" stroke-width="2"/>
<path fill-rule="evenodd" clip-rule="evenodd" d="M186.706 69.4846C186.325 74.9158 181.623 79.0101 176.204 78.6301C170.784 78.25 166.699 73.5395 167.08 68.1083C167.461 62.677 172.164 58.582 177.583 58.962C183.002 59.3421 187.087 64.0533 186.706 69.4846Z" stroke="#E576C6" stroke-width="2"/>
<path d="M166.249 68.508L162.006 68.2104" stroke="#E576C6" stroke-width="2"/>
<path d="M142.372 66.3755L118.131 64.6756" stroke="#E576C6" stroke-width="2"/>
<path fill-rule="evenodd" clip-rule="evenodd" d="M88.9676 283.625L81.5854 283.524C81.5854 283.524 81.5961 283.415 81.6057 283.185C84.1483 283.354 86.6066 283.494 88.9676 283.625Z" fill="#C83820"/>
<path d="M239.39 358.532L215.02 361.392L175.77 303.911L174.337 284.806L114.543 283.975L89.0208 283.625H88.9674C86.6064 283.494 84.1481 283.355 81.6066 283.185C49.4602 281.084 4.92113 275.231 1.86568 259.025C-4.67583 224.398 26.9668 166.982 59.7962 147.633C72.6377 140.06 89.2772 135.642 100.719 135.673L103.784 114.875L150.461 120.907L147.918 138.194C161.625 139.424 182.058 143.62 190.786 151.123C224.822 173.64 224.822 251.235 224.822 251.235L239.39 358.532Z" fill="#1502FF" stroke="white" stroke-width="2"/>
<path fill-rule="evenodd" clip-rule="evenodd" d="M114.543 283.975V284.375C114.543 284.375 103.838 284.395 89.0205 283.625L114.543 283.975Z" fill="#C83820"/>
<path fill-rule="evenodd" clip-rule="evenodd" d="M213.837 334.996L124.697 325.375C121.777 325.059 119.855 322.372 120.656 319.725L155.877 203.206C156.513 201.101 158.686 199.738 161.009 199.988L250.149 209.609C253.068 209.924 254.991 212.612 254.189 215.259L218.969 331.777C218.333 333.884 216.159 335.246 213.837 334.996Z" fill="#18181C"/>
<path d="M134.681 291.452C134.851 291.495 135.022 291.539 135.196 291.585C141.389 293.167 147.719 294.124 156.523 293.038C162.186 292.345 167.055 291.439 167 290.592C166.844 288.454 164.095 287.975 164.095 287.975L158.807 288.214L153.72 287.932C153.72 287.932 177.093 283.793 177.093 283.152C177.02 280.894 173.184 279.978 173.184 279.978C173.184 279.978 181.221 278.781 181.129 277.584C180.91 274.54 177.322 274.308 177.322 274.308C177.322 274.308 178.317 273.504 178.217 272.76C177.824 269.758 172.106 269.262 169.384 268.895C169.384 268.895 160.122 268.775 157.364 268.133C150.109 266.437 145.792 264.922 143.083 263.657L161.183 203.779C161.82 201.673 163.994 200.311 166.315 200.561L255.455 210.182C258.374 210.496 260.297 213.184 259.496 215.831L224.276 332.349C223.639 334.456 221.466 335.819 219.143 335.568L130.003 325.948C127.085 325.632 125.162 322.945 125.962 320.298L134.681 291.452Z" fill="white"/>
<path fill-rule="evenodd" clip-rule="evenodd" d="M177.093 283.152C177.02 280.894 173.184 279.978 173.184 279.978C173.184 279.978 181.221 278.781 181.129 277.584C180.91 274.54 177.322 274.308 177.322 274.308C177.322 274.308 178.317 273.504 178.217 272.76C177.853 269.98 172.922 269.349 170.033 268.979C169.802 268.949 169.585 268.922 169.384 268.895C169.384 268.895 160.122 268.775 157.364 268.133C143.608 264.917 140.411 262.352 138.722 260.907C138.671 260.863 138.621 260.82 138.572 260.778C138.432 260.657 138.303 260.546 138.173 260.446C138.268 260.349 138.376 260.188 138.489 260.02C138.647 259.784 138.815 259.533 138.97 259.428L141.321 251.362C139.6 251.537 137.917 251.591 136.251 251.645C133.911 251.721 131.602 251.795 129.26 252.2C122.875 253.303 119.094 254.689 119.094 254.689L110.947 257.297L105.038 277.772C107.275 279.636 112.636 283.314 116.272 285.169C123.293 288.75 126.386 289.479 131.131 290.597C131.928 290.784 132.772 290.983 133.689 291.208C133.794 291.234 133.898 291.26 134.004 291.286C134.39 291.38 134.787 291.477 135.196 291.585C141.389 293.167 147.719 294.124 156.523 293.038C162.186 292.345 167.055 291.438 167 290.592C166.844 288.454 164.095 287.975 164.095 287.975L158.807 288.214L153.72 287.932C153.72 287.932 177.093 283.793 177.093 283.152ZM252.384 374.257C251.391 372.429 244.568 364.755 238.966 358.581L215.641 361.319C212.97 376.07 224.067 397.151 224.067 397.151C224.067 397.151 218.295 393.854 217.146 396.737C216.635 398.021 215.476 408.272 237.1 408.962C239.396 409.036 244.918 404.664 244.918 404.664C244.918 404.664 240.891 411.863 247.057 413.278C247.057 413.278 256.994 399.336 257.146 396.235C257.298 393.131 254.109 377.429 252.384 374.257Z" fill="white"/>
<path opacity="0.148065" d="M228.482 369.016C228.482 369.016 231.516 379.749 241.929 383.093C245.571 384.262 244.662 398.067 253.586 396.416" stroke="black" stroke-width="3"/>
<path fill-rule="evenodd" clip-rule="evenodd" d="M170.24 211.416C169.538 213.48 168.04 214.878 166.894 214.537C165.747 214.196 165.387 212.244 166.089 210.179C166.791 208.113 168.289 206.716 169.435 207.057C170.582 207.399 170.942 209.35 170.24 211.416Z" fill="#020101"/>
<path d="M173.479 284.574C176.906 243.816 200.629 235.198 183.535 189.489" stroke="white" stroke-width="2"/>
<path d="M80.4502 197.571L57.9509 232.455L113.892 253.182" stroke="white" stroke-width="2"/>
<path fill-rule="evenodd" clip-rule="evenodd" d="M386.674 470.917L374.596 450.734L349.775 454.474L383.537 509.819L432.588 474.84C426.597 465.325 386.674 470.917 386.674 470.917ZM270.331 578.992L271.523 555.485L248.84 544.955L245.488 609.499H311.358C321.93 601.709 270.331 578.992 270.331 578.992Z" fill="#1502FF"/>
<path d="M374.596 450.734L375.884 449.964L375.367 449.101L374.373 449.251L374.596 450.734ZM386.674 470.917L385.387 471.687L385.898 472.541L386.883 472.403L386.674 470.917ZM349.775 454.474L349.551 452.99L347.317 453.326L348.494 455.255L349.775 454.474ZM383.537 509.819L382.256 510.601L383.096 511.977L384.409 511.041L383.537 509.819ZM432.588 474.84L433.459 476.062L434.613 475.239L433.858 474.041L432.588 474.84ZM271.523 555.485L273.022 555.561L273.073 554.551L272.155 554.124L271.523 555.485ZM270.331 578.992L268.832 578.916L268.78 579.949L269.726 580.366L270.331 578.992ZM248.84 544.955L249.472 543.594L247.457 542.658L247.342 544.877L248.84 544.955ZM245.488 609.499L243.989 609.422L243.907 611H245.488V609.499ZM311.358 609.499V611H311.851L312.248 610.707L311.358 609.499ZM373.309 451.505L385.387 471.687L387.962 470.146L375.884 449.964L373.309 451.505ZM349.998 455.958L374.82 452.218L374.373 449.251L349.551 452.99L349.998 455.958ZM384.818 509.038L351.056 453.692L348.494 455.255L382.256 510.601L384.818 509.038ZM431.717 473.618L382.666 508.598L384.409 511.041L433.459 476.062L431.717 473.618ZM386.674 470.917C386.883 472.403 386.882 472.403 386.883 472.403C386.883 472.403 386.883 472.403 386.884 472.403C386.885 472.403 386.886 472.402 386.888 472.402C386.893 472.401 386.899 472.401 386.908 472.399C386.927 472.397 386.954 472.393 386.991 472.388C387.065 472.378 387.175 472.363 387.32 472.344C387.609 472.306 388.036 472.251 388.583 472.185C389.676 472.052 391.247 471.872 393.152 471.685C396.965 471.312 402.101 470.914 407.414 470.811C412.74 470.707 418.18 470.902 422.624 471.69C424.847 472.085 426.764 472.618 428.274 473.305C429.794 473.997 430.784 474.792 431.318 475.64L433.858 474.041C432.894 472.51 431.326 471.397 429.517 470.574C427.696 469.745 425.512 469.155 423.149 468.735C418.423 467.897 412.758 467.705 407.355 467.81C401.939 467.915 396.72 468.321 392.86 468.698C390.928 468.888 389.333 469.07 388.22 469.206C387.663 469.273 387.227 469.329 386.929 469.369C386.779 469.388 386.665 469.404 386.587 469.414C386.548 469.42 386.518 469.424 386.498 469.426C386.488 469.428 386.48 469.429 386.475 469.43C386.472 469.43 386.47 469.43 386.469 469.43C386.468 469.431 386.467 469.431 386.467 469.431C386.467 469.431 386.466 469.431 386.674 470.917ZM270.025 555.409L268.832 578.916L271.829 579.068L273.022 555.561L270.025 555.409ZM248.208 546.316L270.891 556.846L272.155 554.124L249.472 543.594L248.208 546.316ZM246.986 609.577L250.339 545.032L247.342 544.877L243.989 609.422L246.986 609.577ZM311.358 607.999H245.488V611H311.358V607.999ZM270.331 578.992C269.726 580.366 269.726 580.366 269.727 580.366C269.727 580.366 269.727 580.366 269.728 580.367C269.729 580.367 269.732 580.368 269.735 580.369C269.74 580.372 269.749 580.376 269.761 580.381C269.785 580.392 269.822 580.408 269.869 580.429C269.965 580.472 270.108 580.535 270.294 580.619C270.666 580.785 271.211 581.032 271.903 581.348C273.286 581.981 275.251 582.895 277.577 584.015C282.232 586.259 288.316 589.324 294.061 592.626C299.837 595.944 305.158 599.438 308.367 602.527C309.996 604.096 310.905 605.396 311.19 606.373C311.322 606.824 311.302 607.144 311.219 607.388C311.136 607.634 310.938 607.945 310.468 608.292L312.248 610.707C313.099 610.081 313.737 609.301 314.059 608.358C314.382 607.413 314.338 606.447 314.071 605.531C313.558 603.775 312.17 602.022 310.448 600.365C306.956 597.004 301.359 593.358 295.557 590.024C289.724 586.672 283.569 583.571 278.879 581.312C276.533 580.181 274.55 579.259 273.152 578.619C272.453 578.299 271.9 578.05 271.522 577.88C271.332 577.795 271.186 577.73 271.088 577.686C271.038 577.665 271.001 577.648 270.975 577.637C270.962 577.631 270.953 577.627 270.946 577.624C270.943 577.622 270.94 577.621 270.938 577.62C270.937 577.62 270.937 577.62 270.936 577.619C270.936 577.619 270.935 577.619 270.331 578.992Z" fill="white"/>
<path fill-rule="evenodd" clip-rule="evenodd" d="M377.209 453.613L352.052 458.867L366.537 482.105L387.396 469.391L377.209 453.613ZM271.548 560.083L247.755 550.626L247.024 577.898L271.345 578.791L271.548 560.083Z" fill="white"/>
<path d="M307.506 432.087L295.191 565.758H238.152L240.684 371.675L131.81 372.426C100.752 372.425 74.725 351.7 74.725 318.359L73.7632 284.377L242.516 234.071C273.296 227.112 283.967 236.306 303.922 271.829L392.03 452.432L343.628 484.776L307.506 432.087Z" fill="#111111"/>
<path fill-rule="evenodd" clip-rule="evenodd" d="M256.406 294.683L131.81 372.426L240.684 371.675L238.152 565.758H295.191L314.746 353.499C319.571 314.878 295.4 294.683 256.406 294.683Z" fill="black"/>
</svg>
