<svg viewBox="0 0 342 729" fill="none" xmlns="http://www.w3.org/2000/svg">
<path d="M167.02 123.807L166.313 98.6791C166.313 98.6791 196.776 101.133 203.296 97.7446C203.296 97.7446 211.292 56.6197 201.809 33.8355L201.617 32.9485L137.332 25.3637L134.629 61.2686C132.468 54.8649 113.671 48.6596 108.993 57.8238C98.8529 77.6816 135.045 91.0844 135.045 91.0844L131.344 124.082" fill="white"/>
<path d="M167.02 123.807L166.313 98.6791C166.313 98.6791 196.776 101.133 203.296 97.7446C203.296 97.7446 211.292 56.6197 201.809 33.8355L201.617 32.9485L137.332 25.3637L134.629 61.2686C132.468 54.8649 113.671 48.6596 108.993 57.8238C98.8529 77.6816 135.045 91.0844 135.045 91.0844L131.344 124.082" stroke="black" stroke-width="2"/>
<path opacity="0.398926" fill-rule="evenodd" clip-rule="evenodd" d="M166.313 98.6788L145.772 94.2487L166.207 108.106L166.313 98.6788Z" fill="black"/>
<path fill-rule="evenodd" clip-rule="evenodd" d="M183.76 61.8334L190.846 79.2329L182.338 79.3352L183.76 61.8334Z" fill="#1502FF"/>
<path d="M137.413 68.7238C131.325 58.2632 129.271 57.6441 125.72 55.4331C124.253 50.7556 122.801 44.517 122.489 40.0213C121.2 21.4427 131.875 9.89022 140.726 5.9412C149.684 1.94481 162.196 -0.104365 181.364 6.1428C198.681 11.7869 214.075 4.06926 217.811 3.81007C228.943 19.0285 215.435 49.4933 176.696 39.6172C148.987 32.5525 148.273 34.3189 148.032 39.439C147.251 55.9892 144.668 65.7239 138.469 68.6505L137.413 68.7238Z" fill="#1502FF"/>
<path d="M140.725 87.248C141.31 81.2429 141.944 75.6565 137.541 66.8285L140.041 62.7253L143.116 63.6462C143.259 64.9022 147.807 73.2674 157.818 77.2345C176.776 84.7468 199.667 81.0056 205.621 80.5926C207.703 91.3825 205.647 115.521 196.759 115.689C180.801 117.09 175.828 115.044 160.453 113.478C138.506 111.244 140.139 93.2532 140.725 87.248Z" fill="#1502FF"/>
<path d="M170.938 84.9606C170.938 84.9606 173.666 89.9368 179.57 89.8233" stroke="white" stroke-width="4"/>
<path fill-rule="evenodd" clip-rule="evenodd" d="M180.7 62.7789C180.696 68.2245 176.287 72.6352 170.853 72.6311C165.42 72.6271 161.018 68.2098 161.022 62.7643C161.026 57.3187 165.435 52.9072 170.868 52.9113C176.302 52.9153 180.704 57.3333 180.7 62.7789Z" stroke="#E576C6" stroke-width="2"/>
<path fill-rule="evenodd" clip-rule="evenodd" d="M208.468 62.5895C208.464 68.0351 204.056 72.4458 198.622 72.4418C193.188 72.4377 188.786 68.0205 188.79 62.5749C188.794 57.1293 193.203 52.7179 198.637 52.7219C204.07 52.7259 208.472 57.144 208.468 62.5895Z" stroke="#E576C6" stroke-width="2"/>
<path d="M188.674 63.3037L180.74 63.2359" stroke="#E576C6" stroke-width="2"/>
<path d="M161.022 62.7642L136.718 62.7462" stroke="#E576C6" stroke-width="2"/>
<mask id="path-12-inside-1" fill="white">
<path fill-rule="evenodd" clip-rule="evenodd" d="M73.8828 672.708L42.4824 663.27L35.9335 698.555L70.5867 700.067L73.8828 672.708ZM197.164 674.76L165.763 665.322L163.232 697.605L196.881 699.118L197.164 674.76Z"/>
</mask>
<path fill-rule="evenodd" clip-rule="evenodd" d="M73.8828 672.708L42.4824 663.27L35.9335 698.555L70.5867 700.067L73.8828 672.708ZM197.164 674.76L165.763 665.322L163.232 697.605L196.881 699.118L197.164 674.76Z" fill="white"/>
<path d="M42.4824 663.27L43.0584 661.354L40.9221 660.712L40.515 662.905L42.4824 663.27ZM73.8828 672.708L75.8695 672.947L76.0708 671.276L74.4587 670.792L73.8828 672.708ZM35.9335 698.555L33.9661 698.189L33.5459 700.453L35.8463 700.554L35.9335 698.555ZM70.5867 700.067L70.4995 702.066L72.3517 702.147L72.5734 700.306L70.5867 700.067ZM165.763 665.322L166.339 663.405L163.962 662.691L163.768 665.165L165.763 665.322ZM197.164 674.76L199.165 674.784L199.183 673.278L197.74 672.844L197.164 674.76ZM163.232 697.605L161.237 697.449L161.076 699.511L163.142 699.604L163.232 697.605ZM196.881 699.118L196.791 701.117L198.858 701.21L198.882 699.141L196.881 699.118ZM41.9064 665.187L73.3068 674.624L74.4587 670.792L43.0584 661.354L41.9064 665.187ZM37.901 698.92L44.4499 663.635L40.515 662.905L33.9661 698.189L37.901 698.92ZM70.674 698.068L36.0208 696.555L35.8463 700.554L70.4995 702.066L70.674 698.068ZM71.8961 672.469L68.6 699.828L72.5734 700.306L75.8695 672.947L71.8961 672.469ZM165.187 667.238L196.588 676.677L197.74 672.844L166.339 663.405L165.187 667.238ZM165.227 697.762L167.758 665.478L163.768 665.165L161.237 697.449L165.227 697.762ZM196.971 697.119L163.322 695.606L163.142 699.604L196.791 701.117L196.971 697.119ZM195.163 674.737L194.88 699.094L198.882 699.141L199.165 674.784L195.163 674.737Z" fill="black" mask="url(#path-12-inside-1)"/>
<path d="M84.4624 660.573H88.9062L86.3776 682.53L32.0209 682.92L35.0346 660.963H40.528C64.3278 519.717 63.978 441.163 83.3362 301.596L122.175 301.596L216.641 301.596C220.82 445.391 225.836 523.243 202.793 661.354H207.028V682.53H154.02V661.354H158.718C161.201 620.829 148.951 529.344 142.014 495.361C135.258 548.413 111.071 610.48 84.4624 660.573Z" fill="#111111"/>
<path opacity="0.200358" fill-rule="evenodd" clip-rule="evenodd" d="M142.326 495.611L158.133 414.319C164.326 523.152 183.575 549.849 161.892 658.754C164.651 593.486 149.29 559.289 142.326 495.611Z" fill="black"/>
<path fill-rule="evenodd" clip-rule="evenodd" d="M197.164 701.898V696.175L163.41 695.017L161.206 728.575H230.635C236.062 722.802 197.164 701.898 197.164 701.898ZM70.5865 700.068L70.9756 697.024L36.3941 696.155L28.4873 728.575H95.9651C99.7841 716.169 70.5865 700.068 70.5865 700.068Z" fill="#1502FF"/>
<path fill-rule="evenodd" clip-rule="evenodd" d="M148.631 115.574C136.393 115.619 119.437 115.656 119.437 115.656C119.437 115.656 128.633 137.911 156.448 139.748C184.263 141.582 176.255 121.322 176.255 121.322C176.255 121.322 160.867 115.526 148.631 115.574ZM26.6946 197.643C26.6946 197.643 -0.448911 243.532 0.166418 269.052C0.892806 299.142 86.2834 373.077 86.2834 373.077L108.413 352.774L54.6565 268.363L74.206 221.46L26.6946 197.643Z" fill="white"/>
<path fill-rule="evenodd" clip-rule="evenodd" d="M305.446 101.608C301.434 97.466 300.495 85.9152 303.964 78.5025C304.855 77.2062 307.803 77.7795 309.165 78.2282C310.889 72.4105 312.279 54.636 312.279 53.3671C312.279 51.1576 319.361 50.8357 321.061 52.5353C321.542 52.6719 320.755 61.4861 320.101 68.8071C319.631 74.0658 319.23 78.5541 319.417 78.5025C319.55 78.4659 321.097 74.5546 322.946 69.8789C325.692 62.9321 329.106 54.298 329.543 54.1775C332.666 54.1345 337.984 55.3255 336.747 59.8771C336.621 60.3409 333.517 68.1772 331.424 73.4599C330.377 76.1028 329.584 78.1066 329.543 78.2282C331.925 78.2437 336.747 80.3587 336.747 81.848V83.7464C338.933 83.6643 341.308 87.776 340.966 88.825C339.486 93.3648 337.353 99.6426 333.739 104.213C331.598 106.921 329.967 107.368 328.164 107.861C327.168 108.134 326.121 108.421 324.905 109.11C322.099 125.198 303.699 182.569 269.994 219.041L262.219 166.948C273.22 156.024 298.053 117.89 305.093 102.367C305.21 102.109 305.328 101.856 305.446 101.608Z" fill="white"/>
<path d="M303.964 78.5025L303.139 77.9356L303.093 78.0037L303.058 78.0785L303.964 78.5025ZM305.446 101.608L306.349 102.041L306.649 101.412L306.165 100.912L305.446 101.608ZM309.165 78.2282L308.852 79.1785L309.831 79.501L310.124 78.5125L309.165 78.2282ZM312.279 53.3671L311.279 53.3671V53.3671L312.279 53.3671ZM321.061 52.5353L320.353 53.2428L320.537 53.4268L320.788 53.4978L321.061 52.5353ZM320.101 68.8071L321.097 68.8962L320.101 68.8071ZM319.417 78.5025L319.152 77.5378L319.417 78.5025ZM322.946 69.8789L322.015 69.5111L322.946 69.8789ZM329.543 54.1775L329.529 53.1771L329.401 53.1789L329.277 53.213L329.543 54.1775ZM336.747 59.8771L337.713 60.1395L337.713 60.1395L336.747 59.8771ZM331.424 73.4599L330.494 73.0914L331.424 73.4599ZM329.543 78.2282L328.595 77.9089L328.153 79.2197L329.536 79.2287L329.543 78.2282ZM336.747 83.7464H335.747V84.7853L336.785 84.7463L336.747 83.7464ZM340.966 88.825L341.918 89.1352V89.1352L340.966 88.825ZM333.739 104.213L334.524 104.833L333.739 104.213ZM328.164 107.861L327.9 106.896L328.164 107.861ZM324.905 109.11L324.411 108.24L324.001 108.473L323.92 108.938L324.905 109.11ZM269.994 219.041L269.004 219.189L269.312 221.253L270.729 219.72L269.994 219.041ZM262.219 166.948L261.514 166.238L261.155 166.595L261.229 167.096L262.219 166.948ZM305.093 102.367L306.004 102.78L305.093 102.367ZM303.058 78.0785C301.234 81.9756 300.59 86.8953 300.902 91.3516C301.21 95.7657 302.475 99.9793 304.727 102.304L306.165 100.912C304.405 99.0951 303.195 95.4621 302.898 91.2121C302.604 87.0042 303.225 82.4422 304.87 78.9266L303.058 78.0785ZM309.478 77.2778C308.735 77.0333 307.562 76.7529 306.424 76.7111C305.855 76.6903 305.246 76.7269 304.685 76.8881C304.121 77.0499 303.535 77.3598 303.139 77.9356L304.788 79.0695C304.838 78.9971 304.954 78.8926 305.237 78.8113C305.522 78.7294 305.902 78.6944 306.351 78.7109C307.25 78.7438 308.232 78.9743 308.852 79.1785L309.478 77.2778ZM311.279 53.3671C311.279 53.9387 310.938 58.6442 310.374 63.9867C309.808 69.338 309.037 75.1396 308.205 77.9438L310.124 78.5125C311.017 75.4991 311.803 69.5046 312.364 64.197C312.925 58.8806 313.28 54.0644 313.28 53.3671L311.279 53.3671ZM321.768 51.8278C321.126 51.1855 320.118 50.8398 319.161 50.6551C318.161 50.4621 317.028 50.4097 315.96 50.4874C314.903 50.5642 313.836 50.7739 312.998 51.1553C312.219 51.51 311.279 52.195 311.279 53.3671L313.28 53.3671C313.28 53.3665 313.279 53.3684 313.28 53.3655C313.283 53.3603 313.293 53.3377 313.328 53.2998C313.403 53.2172 313.556 53.0999 313.827 52.9766C314.37 52.7293 315.179 52.5505 316.105 52.4832C317.021 52.4166 317.976 52.4643 318.782 52.6199C319.631 52.7838 320.146 53.0353 320.353 53.2428L321.768 51.8278ZM321.097 68.8962C321.424 65.2389 321.785 61.1942 322.005 58.0466C322.114 56.4753 322.19 55.1104 322.206 54.1229C322.215 53.6342 322.209 53.2083 322.181 52.887C322.168 52.7329 322.146 52.5552 322.101 52.3921C322.079 52.3134 322.038 52.1871 321.959 52.0563C321.889 51.9406 321.702 51.6773 321.334 51.5727L320.788 53.4978C320.449 53.4018 320.29 53.164 320.246 53.0901C320.192 53.0011 320.174 52.933 320.173 52.9281C320.168 52.9127 320.178 52.9456 320.188 53.0599C320.207 53.2753 320.214 53.6177 320.206 54.0889C320.19 55.0213 320.118 56.3431 320.009 57.9075C319.791 61.0314 319.431 65.0544 319.104 68.7181L321.097 68.8962ZM319.152 77.5378C319.392 77.4719 319.651 77.4982 319.876 77.6167C320.072 77.7205 320.183 77.863 320.235 77.9416C320.332 78.0877 320.36 78.219 320.364 78.2342C320.378 78.2951 320.375 78.3218 320.373 78.269C320.369 78.1855 320.37 78.029 320.379 77.7863C320.396 77.3113 320.442 76.6072 320.51 75.7225C320.645 73.9574 320.862 71.5282 321.097 68.8962L319.104 68.7181C318.869 71.3448 318.651 73.7891 318.515 75.5699C318.447 76.4582 318.398 77.1951 318.379 77.7115C318.369 77.9645 318.366 78.1913 318.374 78.3638C318.378 78.4391 318.385 78.5622 318.414 78.6857C318.425 78.7322 318.461 78.8864 318.567 79.0468C318.624 79.1325 318.74 79.28 318.942 79.3866C319.172 79.5079 319.437 79.5348 319.682 79.4673L319.152 77.5378ZM322.015 69.5111C321.09 71.8505 320.243 73.9927 319.611 75.5549C319.294 76.3371 319.034 76.9663 318.847 77.3997C318.752 77.6184 318.681 77.775 318.633 77.8728C318.608 77.9245 318.598 77.9408 318.601 77.936C318.602 77.9333 318.607 77.926 318.614 77.9154C318.62 77.9057 318.633 77.8868 318.652 77.8632C318.669 77.8426 318.705 77.7985 318.761 77.7493C318.801 77.7137 318.936 77.5972 319.152 77.5378L319.682 79.4673C319.903 79.4067 320.043 79.2872 320.088 79.2467C320.149 79.1926 320.192 79.1417 320.215 79.1125C320.263 79.0533 320.297 78.9976 320.316 78.966C320.357 78.8977 320.396 78.8216 320.43 78.7538C320.499 78.6124 320.585 78.4208 320.683 78.1947C320.881 77.7382 321.148 77.0906 321.465 76.3059C322.102 74.7343 322.952 72.5831 323.876 70.2468L322.015 69.5111ZM329.277 53.213C328.989 53.2925 328.814 53.4761 328.773 53.5191C328.701 53.5933 328.645 53.6696 328.605 53.7268C328.523 53.8444 328.442 53.9852 328.365 54.1278C328.209 54.4192 328.018 54.8179 327.803 55.2913C327.371 56.2432 326.812 57.5644 326.185 59.0877C324.93 62.1374 323.388 66.0397 322.015 69.5111L323.876 70.2468C325.25 66.7714 326.787 62.8832 328.036 59.849C328.66 58.3304 329.208 57.0363 329.625 56.1184C329.834 55.6568 330.003 55.3069 330.128 55.0759C330.191 54.9574 330.231 54.8935 330.249 54.8679C330.259 54.8536 330.246 54.8737 330.214 54.9078C330.211 54.9107 330.07 55.0701 329.809 55.142L329.277 53.213ZM337.713 60.1395C338.076 58.8041 337.978 57.619 337.478 56.6148C336.988 55.6284 336.164 54.9237 335.262 54.4278C333.486 53.4504 331.181 53.1543 329.529 53.1771L329.557 55.178C331.028 55.1577 332.943 55.4357 334.298 56.1809C334.962 56.5464 335.43 56.9901 335.687 57.5058C335.934 58.0037 336.037 58.6743 335.782 59.6147L337.713 60.1395ZM332.355 73.8283C333.401 71.1873 334.7 67.9064 335.754 65.2277C336.281 63.8886 336.747 62.6984 337.09 61.8133C337.261 61.371 337.402 61.0026 337.505 60.729C337.597 60.4841 337.681 60.2548 337.713 60.1395L335.782 59.6147C335.786 59.5989 335.781 59.619 335.748 59.7104C335.72 59.7877 335.681 59.8929 335.631 60.0254C335.532 60.2898 335.394 60.651 335.223 61.0911C334.883 61.9709 334.419 63.1569 333.892 64.4951C332.839 67.1712 331.541 70.4498 330.494 73.0914L332.355 73.8283ZM330.491 78.5474C330.487 78.5585 330.494 78.5397 330.526 78.4575C330.552 78.3881 330.59 78.2913 330.638 78.1687C330.734 77.9237 330.87 77.5803 331.037 77.1572C331.371 76.3112 331.831 75.15 332.355 73.8283L330.494 73.0914C329.459 75.7041 328.647 77.7543 328.595 77.9089L330.491 78.5474ZM337.748 81.848C337.748 81.3916 337.565 81.0003 337.362 80.7021C337.156 80.3998 336.885 80.1278 336.597 79.8878C336.021 79.4074 335.263 78.9611 334.469 78.5823C332.903 77.8358 330.949 77.2368 329.549 77.2276L329.536 79.2287C330.518 79.2351 332.166 79.7013 333.608 80.3885C334.316 80.7265 334.913 81.0892 335.316 81.4247C335.517 81.5927 335.641 81.7303 335.708 81.8288C335.778 81.9315 335.747 81.932 335.747 81.848H337.748ZM337.748 83.7464V81.848H335.747V83.7464H337.748ZM341.918 89.1352C342.034 88.7779 342.007 88.4101 341.959 88.1331C341.908 87.8341 341.811 87.52 341.69 87.2118C341.448 86.5941 341.072 85.9119 340.618 85.2783C340.165 84.6466 339.604 84.0238 338.974 83.555C338.355 83.0942 337.574 82.7141 336.71 82.7466L336.785 84.7463C337.014 84.7377 337.35 84.8407 337.78 85.1606C338.199 85.4724 338.621 85.9277 338.992 86.4448C339.362 86.96 339.653 87.4973 339.828 87.943C339.915 88.1665 339.965 88.3451 339.987 88.4714C340.012 88.6197 339.984 88.6099 340.015 88.5149L341.918 89.1352ZM334.524 104.833C338.266 100.102 340.444 93.6533 341.918 89.1352L340.015 88.5149C338.528 93.0763 336.441 99.1832 332.955 103.592L334.524 104.833ZM328.428 108.826C329.321 108.582 330.295 108.319 331.319 107.737C332.353 107.15 333.391 106.267 334.524 104.833L332.955 103.592C331.946 104.867 331.097 105.562 330.33 105.998C329.553 106.439 328.81 106.647 327.9 106.896L328.428 108.826ZM325.399 109.981C326.496 109.358 327.437 109.098 328.428 108.826L327.9 106.896C326.9 107.17 325.745 107.483 324.411 108.24L325.399 109.981ZM270.729 219.72C287.686 201.371 300.765 177.799 309.953 156.833C319.138 135.872 324.47 117.428 325.891 109.282L323.92 108.938C322.534 116.88 317.263 135.166 308.12 156.03C298.98 176.889 286.007 200.239 269.259 218.362L270.729 219.72ZM261.229 167.096L269.004 219.189L270.983 218.894L263.208 166.801L261.229 167.096ZM304.181 101.954C300.696 109.64 292.765 122.999 284.306 135.832C275.839 148.677 266.932 160.859 261.514 166.238L262.924 167.658C268.507 162.114 277.517 149.767 285.977 136.933C294.445 124.086 302.45 110.617 306.004 102.78L304.181 101.954ZM304.544 101.176C304.422 101.43 304.301 101.689 304.181 101.954L306.004 102.78C306.118 102.528 306.233 102.282 306.349 102.041L304.544 101.176Z" fill="black"/>
<path d="M101.983 315.98L115.202 335.957L75.3858 375.043C75.3858 375.043 2.31977 314.731 0.0635619 267.443C-1.37321 237.324 22.0243 194.33 22.0243 194.33C22.0243 194.33 51.392 141.47 85.3401 123.631C92.3068 119.97 109.198 116.916 119.437 115.656C120.665 115.505 121.151 115.45 121.151 115.45C121.212 115.991 121.129 117.577 121.777 118.979C122.902 121.414 126.329 125.022 128.699 127.719C133.633 133.333 143.357 137.584 148.58 138.454C152.56 139.117 160.252 140.146 163.953 139.586C167.653 139.026 171.676 137.145 172.751 136.027C173.826 134.91 175.426 133.511 176.255 131.357C177.085 129.203 177.043 129.82 177.043 127.833C177.043 125.846 176.952 126.139 176.779 125.194C176.606 124.248 176.606 123.68 176.505 123.191C176.255 122.196 176.255 121.322 176.255 121.322C196.296 128.139 206.447 130.662 213.748 140.578L247.978 173.573L300.168 104.829L325.831 115.45C325.831 115.45 297.611 234.757 266.005 244.874C240.544 253.023 221.656 229.196 212.587 219.031C215.675 235.086 215.91 241.697 217.173 310.216C207.087 321.949 101.983 315.98 101.983 315.98Z" fill="#1502FF"/>
<path d="M214.256 223.044L209.993 203.851" stroke="white" stroke-width="2"/>
<path d="M97.0385 308.827L65.9449 259.165L103.504 195.019" stroke="white" stroke-width="2"/>
</svg>
